<?xml version="1.0" encoding="UTF-8" standalone="no"?>
<svg width="33px" height="39px" viewBox="0 0 33 39" version="1.1" xmlns="http://www.w3.org/2000/svg" xmlns:xlink="http://www.w3.org/1999/xlink">
    <!-- Generator: Sketch 3.7.2 (28276) - http://www.bohemiancoding.com/sketch -->
    <title>Apple_logo_black</title>
    <desc>Created with Sketch.</desc>
    <defs></defs>
    <g id="Page-1" stroke="none" stroke-width="1" fill="none" fill-rule="evenodd">
        <g id="Desktop-HD-Copy" transform="translate(-65.000000, -649.000000)" fill="#FFFFFF">
            <g id="Apple_logo_black" transform="translate(65.000000, 649.000000)">
                <path d="M32.1319565,30.2606707 C31.546087,31.6066463 30.8526087,32.8456098 30.0491304,33.9846951 C28.953913,35.537561 28.0571739,36.612439 27.366087,37.2093293 C26.2947826,38.1890854 25.1469565,38.6908537 23.9178261,38.7193902 C23.0354348,38.7193902 21.9713043,38.4696951 20.7326087,37.9631707 C19.4898478,37.4590244 18.3477609,37.2093293 17.3034783,37.2093293 C16.2082609,37.2093293 15.0336522,37.4590244 13.7772609,37.9631707 C12.5189565,38.4696951 11.5052826,38.7336585 10.7302609,38.7598171 C9.55158696,38.8097561 8.37673913,38.2937195 7.20404348,37.2093293 C6.45556522,36.560122 5.51936957,35.4471951 4.39784783,33.8705488 C3.19454348,32.1868902 2.20526087,30.2345122 1.43023913,28.0086585 C0.600217391,25.6044512 0.184130435,23.2763415 0.184130435,21.0224268 C0.184130435,18.4405793 0.745130435,16.2137744 1.86880435,14.3477195 C2.75191304,12.8488354 3.92676087,11.6664695 5.39717391,10.7984817 C6.86758696,9.9304939 8.45636957,9.48817683 10.1673478,9.45987805 C11.1035435,9.45987805 12.3312391,9.74785976 13.8568913,10.3138354 C15.3782391,10.8817134 16.355087,11.1696951 16.7833696,11.1696951 C17.1035652,11.1696951 18.1887391,10.8329634 20.0283696,10.1616402 C21.7680435,9.53906707 23.2363043,9.28128659 24.4391304,9.38282927 C27.6984783,9.64441463 30.1471739,10.9221402 31.7756522,13.2240915 C28.8606522,14.9805183 27.4186957,17.4406098 27.4473913,20.5965183 C27.4736957,23.0547073 28.3704348,25.1003049 30.1328261,26.7245122 C30.9315217,27.4783537 31.8234783,28.0609756 32.8158696,28.4747561 C32.6006522,29.0954268 32.3734783,29.689939 32.1319565,30.2606707 L32.1319565,30.2606707 Z M24.6567391,1.00829268 C24.6567391,2.93501159 23.948913,4.73398171 22.5380435,6.39909146 C20.8354348,8.37857927 18.7760435,9.52242073 16.5428043,9.34192683 C16.5143478,9.11078049 16.4978478,8.8675061 16.4978478,8.61186585 C16.4978478,6.76221951 17.3075435,4.78273171 18.7454348,3.16423171 C19.4633043,2.3447561 20.3763043,1.66337378 21.4834783,1.11982317 C22.5882609,0.584381707 23.6332609,0.288267073 24.616087,0.237567073 C24.6447826,0.495133537 24.6567391,0.75272378 24.6567391,1.0082689 L24.6567391,1.00829268 Z" id="Shape"></path>
            </g>
        </g>
    </g>
</svg>