<?xml version="1.0" encoding="UTF-8" standalone="no"?>
<svg width="61px" height="75px" viewBox="0 0 61 75" version="1.1" xmlns="http://www.w3.org/2000/svg" xmlns:xlink="http://www.w3.org/1999/xlink">
    <!-- Generator: Sketch 40.3 (33839) - http://www.bohemiancoding.com/sketch -->
    <title>Group 6</title>
    <desc>Created with Sketch.</desc>
    <defs>
        <polygon id="path-1" points="0 0 49 0 49 60 0 60"></polygon>
    </defs>
    <g id="Page-1" stroke="none" stroke-width="1" fill="none" fill-rule="evenodd">
        <g id="Desktop-HD-Copy-2" transform="translate(-259.000000, -214.000000)">
            <g id="Group-6" transform="translate(259.000000, 214.000000)">
                <g id="Group-2-Copy" fill="#DEDEDE">
                    <g id="Page-1">
                        <g id="Group-5">
                            <path d="M56.5322857,1.5 L56.5322857,1.5 C57.9047714,1.492 59.0214286,2.453 59.0214286,3.645 L59.0214286,71.355 C59.0214286,72.547 57.9047714,73.508 56.5322857,73.5 L4.46771429,73.5 C3.09522857,73.508 1.97857143,72.547 1.97857143,71.355 L1.97857143,3.645 C1.97857143,2.453 3.09522857,1.492 4.46771429,1.5 L56.5322857,1.5 L56.5322857,1.5 Z M56.5322857,-1.0658141e-14 L4.46771429,-1.0658141e-14 C2.14105714,-0.008 0.25,1.625 0.25,3.645 L0.25,71.355 C0.25,73.375 2.14105714,75.008 4.46771429,75 L56.5322857,75 C58.8589429,75.008 60.75,73.375 60.75,71.355 L60.75,3.645 C60.75,1.625 58.8589429,-0.008 56.5322857,-1.0658141e-14 L56.5322857,-1.0658141e-14 Z" id="Fill-11"></path>
                        </g>
                    </g>
                </g>
                <g id="Group-4" transform="translate(6.000000, 11.000000)">
                    <mask id="mask-2" fill="white">
                        <use xlink:href="#path-1"></use>
                    </mask>
                    <g id="Duplicate-control"></g>
                    <g id="Group-3" mask="url(#mask-2)">
                        <circle id="Oval-3" fill="#2196F3" cx="2.5" cy="2.5" r="2.5"></circle>
                        <rect id="Rectangle-7" fill="#D8D8D8" x="8" y="1" width="30" height="3" rx="1.5"></rect>
                    </g>
                    <g id="Group-3" mask="url(#mask-2)">
                        <g transform="translate(0.000000, 50.000000)">
                            <circle id="Oval-3" fill="#2196F3" cx="2.5" cy="2.5" r="2.5"></circle>
                            <rect id="Rectangle-7" fill="#D8D8D8" x="8" y="1" width="41" height="3" rx="1.5"></rect>
                        </g>
                    </g>
                    <g id="Group-3" mask="url(#mask-2)">
                        <g transform="translate(0.000000, 40.000000)">
                            <circle id="Oval-3" fill="#2196F3" cx="2.5" cy="2.5" r="2.5"></circle>
                            <rect id="Rectangle-7" fill="#D8D8D8" x="8" y="1" width="41" height="3" rx="1.5"></rect>
                        </g>
                    </g>
                    <g id="Group-3" mask="url(#mask-2)">
                        <g transform="translate(0.000000, 30.000000)">
                            <circle id="Oval-3" fill="#2196F3" cx="2.5" cy="2.5" r="2.5"></circle>
                            <rect id="Rectangle-7" fill="#D8D8D8" x="8" y="1" width="41" height="3" rx="1.5"></rect>
                        </g>
                    </g>
                    <g id="Group-3" mask="url(#mask-2)">
                        <g transform="translate(0.000000, 20.000000)">
                            <circle id="Oval-3" fill="#2196F3" cx="2.5" cy="2.5" r="2.5"></circle>
                            <rect id="Rectangle-7" fill="#D8D8D8" x="8" y="1" width="41" height="3" rx="1.5"></rect>
                        </g>
                    </g>
                    <g id="Group-3" mask="url(#mask-2)">
                        <g transform="translate(0.000000, 10.000000)">
                            <circle id="Oval-3" fill="#2196F3" cx="2.5" cy="2.5" r="2.5"></circle>
                            <rect id="Rectangle-7" fill="#D8D8D8" x="8" y="1" width="41" height="3" rx="1.5"></rect>
                        </g>
                    </g>
                </g>
            </g>
        </g>
    </g>
</svg>