<?xml version="1.0" encoding="UTF-8" standalone="no"?>
<svg width="262px" height="580px" viewBox="0 0 262 580" version="1.1" xmlns="http://www.w3.org/2000/svg" xmlns:xlink="http://www.w3.org/1999/xlink">
    <!-- Generator: Sketch 40.3 (33839) - http://www.bohemiancoding.com/sketch -->
    <title>Group 6</title>
    <desc>Created with Sketch.</desc>
    <defs>
        <path d="M74.0535557,186.091091 C66.7207256,186.091091 60.4340057,179.806982 60.4340057,172.477197 L60.4340057,74.0228026 C60.4340057,66.6930177 66.7207256,60.4089085 74.0535557,60.4089085 L173.071909,60.4089085 C180.404739,60.4089085 186.691459,66.6930177 186.691459,74.0228026 L186.691459,173.000035 C186.168404,180.32982 180.404739,186.091091 172.548854,186.091091 L74.0535557,186.091091 Z" id="path-1"></path>
        <filter x="-50%" y="-50%" width="200%" height="200%" filterUnits="objectBoundingBox" id="filter-2">
            <feOffset dx="4" dy="2" in="SourceAlpha" result="shadowOffsetOuter1"></feOffset>
            <feGaussianBlur stdDeviation="2" in="shadowOffsetOuter1" result="shadowBlurOuter1"></feGaussianBlur>
            <feColorMatrix values="0 0 0 0 0   0 0 0 0 0   0 0 0 0 0  0 0 0 0.5 0" type="matrix" in="shadowBlurOuter1"></feColorMatrix>
        </filter>
        <path d="M103.91799,45.2231493 C99.7268434,45.2231493 96.0587519,41.5565811 96.0587519,37.367175 L96.0587519,8.04133226 C96.0587519,3.85192616 99.7268434,0.185357945 103.91799,0.185357945 C108.109137,0.185357945 111.773875,3.85192616 111.773875,8.04133226 L111.773875,37.367175 C111.773875,42.0794189 108.632192,45.2231493 103.91799,45.2231493 L103.91799,45.2231493 Z" id="path-3"></path>
        <filter x="-50%" y="-50%" width="200%" height="200%" filterUnits="objectBoundingBox" id="filter-4">
            <feOffset dx="0" dy="2" in="SourceAlpha" result="shadowOffsetOuter1"></feOffset>
            <feGaussianBlur stdDeviation="2" in="shadowOffsetOuter1" result="shadowBlurOuter1"></feGaussianBlur>
            <feColorMatrix values="0 0 0 0 0   0 0 0 0 0   0 0 0 0 0  0 0 0 0.5 0" type="matrix" in="shadowBlurOuter1"></feColorMatrix>
        </filter>
        <path d="M142.68442,246.314642 C138.493273,246.314642 134.828534,242.648074 134.828534,238.458668 L134.828534,209.132825 C134.828534,204.943419 138.493273,201.276851 142.68442,201.276851 C146.875566,201.276851 150.543658,204.943419 150.543658,209.132825 L150.543658,238.458668 C150.543658,242.648074 146.875566,246.314642 142.68442,246.314642 L142.68442,246.314642 Z" id="path-5"></path>
        <filter x="-50%" y="-50%" width="200%" height="200%" filterUnits="objectBoundingBox" id="filter-6">
            <feOffset dx="0" dy="2" in="SourceAlpha" result="shadowOffsetOuter1"></feOffset>
            <feGaussianBlur stdDeviation="2" in="shadowOffsetOuter1" result="shadowBlurOuter1"></feGaussianBlur>
            <feColorMatrix values="0 0 0 0 0   0 0 0 0 0   0 0 0 0 0  0 0 0 0.5 0" type="matrix" in="shadowBlurOuter1"></feColorMatrix>
        </filter>
        <path d="M238.557737,73.4999647 L209.21971,73.4999647 C205.028564,73.4999647 201.360472,69.8333965 201.360472,65.6439904 C201.360472,61.4545843 205.028564,57.7913676 209.21971,57.7913676 L238.557737,57.7913676 C242.748883,57.7913676 246.416975,61.4545843 246.416975,65.6439904 C246.416975,69.8333965 242.748883,73.4999647 238.557737,73.4999647 L238.557737,73.4999647 Z" id="path-7"></path>
        <filter x="-50%" y="-50%" width="200%" height="200%" filterUnits="objectBoundingBox" id="filter-8">
            <feOffset dx="0" dy="2" in="SourceAlpha" result="shadowOffsetOuter1"></feOffset>
            <feGaussianBlur stdDeviation="2" in="shadowOffsetOuter1" result="shadowBlurOuter1"></feGaussianBlur>
            <feColorMatrix values="0 0 0 0 0   0 0 0 0 0   0 0 0 0 0  0 0 0 0.5 0" type="matrix" in="shadowBlurOuter1"></feColorMatrix>
        </filter>
        <path d="M37.3826993,188.708632 L8.04467307,188.708632 C3.85352647,188.708632 0.185434953,185.045416 0.185434953,180.85601 C0.185434953,176.666604 3.85352647,173.000035 8.04467307,173.000035 L37.3826993,173.000035 C41.5738459,173.000035 45.2419375,176.666604 45.2419375,180.85601 C45.2419375,185.045416 42.096901,188.708632 37.3826993,188.708632 L37.3826993,188.708632 Z" id="path-9"></path>
        <filter x="-50%" y="-50%" width="200%" height="200%" filterUnits="objectBoundingBox" id="filter-10">
            <feOffset dx="0" dy="2" in="SourceAlpha" result="shadowOffsetOuter1"></feOffset>
            <feGaussianBlur stdDeviation="2" in="shadowOffsetOuter1" result="shadowBlurOuter1"></feGaussianBlur>
            <feColorMatrix values="0 0 0 0 0   0 0 0 0 0   0 0 0 0 0  0 0 0 0.5 0" type="matrix" in="shadowBlurOuter1"></feColorMatrix>
        </filter>
    </defs>
    <g id="Page-1" stroke="none" stroke-width="1" fill="none" fill-rule="evenodd">
        <g id="Desktop-HD-Copy-2" transform="translate(-621.000000, -80.000000)">
            <g id="Group-6" transform="translate(621.000000, 80.000000)">
                <g id="Group-5">
                    <path d="M109.980098,89.330027 C109.882795,89.7469728 109.831325,90.1814938 109.831325,90.6280074 L109.831325,213.871993 C109.831325,217.016819 112.382763,219.571429 115.53012,219.571429 C118.671074,219.571429 121.228916,217.019704 121.228916,213.871993 L121.228916,90.6280074 C121.228916,90.061138 121.146015,89.5134458 120.991667,88.9964358 C127.192644,86.5984975 131.590361,80.5804636 131.590361,73.5357143 C131.590361,64.383567 124.167998,56.9642857 115.012048,56.9642857 C105.856099,56.9642857 98.4337349,64.383567 98.4337349,73.5357143 C98.4337349,80.9342931 103.284306,87.2004309 109.980098,89.330027 Z M115.012048,84.2584034 C120.936486,84.2584034 125.739192,79.4576919 125.739192,73.5357143 C125.739192,67.6137366 120.936486,62.8130252 115.012048,62.8130252 C109.08761,62.8130252 104.284904,67.6137366 104.284904,73.5357143 C104.284904,79.4576919 109.08761,84.2584034 115.012048,84.2584034 Z" id="Combined-Shape" fill="#E7F3FA" opacity="0.490262681"></path>
                    <path d="M187.550351,62.3560446 C187.544919,62.4579168 187.542169,62.5604988 187.542169,62.6637217 L187.542169,185.907707 C187.542169,189.052534 190.093606,191.607143 193.240964,191.607143 C196.381917,191.607143 198.939759,189.055418 198.939759,185.907707 L198.939759,62.6637217 C198.939759,62.4357681 198.926353,62.2109156 198.900287,61.9899123 C204.996788,59.541448 209.301205,53.5767618 209.301205,46.6071429 C209.301205,37.4549956 201.878841,30.0357143 192.722892,30.0357143 C183.566942,30.0357143 176.144578,37.4549956 176.144578,46.6071429 C176.144578,53.9538387 180.927358,60.1839205 187.550351,62.3560446 Z M192.722892,57.3298319 C198.64733,57.3298319 203.450035,52.5291205 203.450035,46.6071429 C203.450035,40.6851652 198.64733,35.8844538 192.722892,35.8844538 C186.798454,35.8844538 181.995748,40.6851652 181.995748,46.6071429 C181.995748,52.5291205 186.798454,57.3298319 192.722892,57.3298319 Z" id="Combined-Shape" fill="#E7F3FA" opacity="0.502490942"></path>
                    <path d="M121.080143,512.419973 C121.177446,512.003027 121.228916,511.568506 121.228916,511.121993 L121.228916,387.878007 C121.228916,384.733181 118.677478,382.178571 115.53012,382.178571 C112.389167,382.178571 109.831325,384.730296 109.831325,387.878007 L109.831325,511.121993 C109.831325,511.688862 109.914226,512.236554 110.068574,512.753564 C103.867597,515.151502 99.4698795,521.169536 99.4698795,528.214286 C99.4698795,537.366433 106.892243,544.785714 116.048193,544.785714 C125.204142,544.785714 132.626506,537.366433 132.626506,528.214286 C132.626506,520.815707 127.775935,514.549569 121.080143,512.419973 Z M116.048193,538.936975 C121.972631,538.936975 126.775337,534.136263 126.775337,528.214286 C126.775337,522.292308 121.972631,517.491597 116.048193,517.491597 C110.123755,517.491597 105.321049,522.292308 105.321049,528.214286 C105.321049,534.136263 110.123755,538.936975 116.048193,538.936975 Z" id="Combined-Shape" fill="#E7F3FA" opacity="0.20555933"></path>
                    <path d="M68.1496741,126.307066 C68.4033456,126.341644 68.662323,126.359509 68.9254642,126.359509 L148.168675,126.359509 L148.168675,204.548933 C148.168675,207.704654 150.720112,210.25 153.86747,210.25 C157.008423,210.25 159.566265,207.697546 159.566265,204.548933 L159.566265,121.701067 C159.566265,119.038961 157.750589,116.811216 155.293166,116.179425 C154.323929,115.417182 153.101684,114.961919 151.773331,114.961919 L68.9254642,114.961919 C68.8889688,114.961919 68.8525549,114.96226 68.8162257,114.96294 C66.7581736,107.211963 59.6909925,101.5 51.2891566,101.5 C41.2748368,101.5 33.1566265,109.614839 33.1566265,119.625 C33.1566265,129.635161 41.2748368,137.75 51.2891566,137.75 C58.942644,137.75 65.4886428,133.010247 68.1496741,126.307066 Z M51.2891566,131.352941 C57.7690107,131.352941 63.0219702,126.102163 63.0219702,119.625 C63.0219702,113.147837 57.7690107,107.897059 51.2891566,107.897059 C44.8093026,107.897059 39.556343,113.147837 39.556343,119.625 C39.556343,126.102163 44.8093026,131.352941 51.2891566,131.352941 Z" id="Combined-Shape" fill="#E7F3FA" opacity="0.390172101"></path>
                    <path d="M106.487024,403.878494 C106.740695,403.913073 106.999672,403.930938 107.262814,403.930938 L186.506024,403.930938 L186.506024,482.120362 C186.506024,485.276083 189.057462,487.821429 192.204819,487.821429 C195.345773,487.821429 197.903614,485.268974 197.903614,482.120362 L197.903614,399.272495 C197.903614,396.61039 196.087939,394.382644 193.630516,393.750854 C192.661278,392.988611 191.439033,392.533348 190.11068,392.533348 L107.262814,392.533348 C107.226318,392.533348 107.189904,392.533689 107.153575,392.534368 C105.095523,384.783391 98.0283419,379.071429 89.626506,379.071429 C79.6121862,379.071429 71.4939759,387.186267 71.4939759,397.196429 C71.4939759,407.20659 79.6121862,415.321429 89.626506,415.321429 C97.2799934,415.321429 103.825992,410.581675 106.487024,403.878494 Z M89.626506,408.92437 C96.1063601,408.92437 101.35932,403.673592 101.35932,397.196429 C101.35932,390.719266 96.1063601,385.468487 89.626506,385.468487 C83.146652,385.468487 77.8936924,390.719266 77.8936924,397.196429 C77.8936924,403.673592 83.146652,408.92437 89.626506,408.92437 Z" id="Combined-Shape-Copy-2" fill="#E7F3FA" opacity="0.390172101" transform="translate(134.698795, 433.446429) scale(1, -1) translate(-134.698795, -433.446429) "></path>
                    <g id="Group-4" opacity="0.411401721" transform="translate(0.000000, 311.750000)" fill="#E7F3FA">
                        <rect id="Rectangle-3-Copy-6" x="11.3975904" y="0" width="11.3975904" height="134.642857" rx="5.69879518"></rect>
                        <path d="M16.5783133,162.607143 C25.7342628,162.607143 33.1566265,155.187862 33.1566265,146.035714 C33.1566265,136.883567 25.7342628,129.464286 16.5783133,129.464286 C7.42236367,129.464286 0,136.883567 0,146.035714 C0,155.187862 7.42236367,162.607143 16.5783133,162.607143 Z M16.5783133,156.758403 C22.5027512,156.758403 27.3054571,151.957692 27.3054571,146.035714 C27.3054571,140.113737 22.5027512,135.313025 16.5783133,135.313025 C10.6538753,135.313025 5.85116938,140.113737 5.85116938,146.035714 C5.85116938,151.957692 10.6538753,156.758403 16.5783133,156.758403 Z" id="Combined-Shape-Copy-3"></path>
                    </g>
                    <path d="M115.012048,580 C143.052144,580 165.783133,557.278451 165.783133,529.25 C165.783133,501.221549 143.052144,478.5 115.012048,478.5 C86.9719526,478.5 64.2409639,501.221549 64.2409639,529.25 C64.2409639,557.278451 86.9719526,580 115.012048,580 Z M115.012048,562.088235 C133.155639,562.088235 147.863926,547.386057 147.863926,529.25 C147.863926,511.113943 133.155639,496.411765 115.012048,496.411765 C96.8684569,496.411765 82.1601701,511.113943 82.1601701,529.25 C82.1601701,547.386057 96.8684569,562.088235 115.012048,562.088235 Z" id="Combined-Shape-Copy" fill="#000000" opacity="0.0350996377"></path>
                    <path d="M50.7710843,170.892857 C78.8111799,170.892857 101.542169,148.171308 101.542169,120.142857 C101.542169,92.1144061 78.8111799,69.3928571 50.7710843,69.3928571 C22.7309887,69.3928571 0,92.1144061 0,120.142857 C0,148.171308 22.7309887,170.892857 50.7710843,170.892857 Z M50.7710843,152.981092 C68.9146756,152.981092 83.6229624,138.278914 83.6229624,120.142857 C83.6229624,102.006801 68.9146756,87.3046218 50.7710843,87.3046218 C32.6274931,87.3046218 17.9192062,102.006801 17.9192062,120.142857 C17.9192062,138.278914 32.6274931,152.981092 50.7710843,152.981092 Z" id="Combined-Shape-Copy-4" fill="#000000" opacity="0.0350996377"></path>
                    <path d="M193.240964,92.1785714 C218.705949,92.1785714 239.349398,71.5436953 239.349398,46.0892857 C239.349398,20.6348761 218.705949,0 193.240964,0 C167.775979,0 147.13253,20.6348761 147.13253,46.0892857 C147.13253,71.5436953 167.775979,92.1785714 193.240964,92.1785714 Z M193.240964,75.9117647 C209.718307,75.9117647 223.075833,62.5597861 223.075833,46.0892857 C223.075833,29.6187854 209.718307,16.2668067 193.240964,16.2668067 C176.763621,16.2668067 163.406095,29.6187854 163.406095,46.0892857 C163.406095,62.5597861 176.763621,75.9117647 193.240964,75.9117647 Z" id="Combined-Shape-Copy-5" fill="#FFFFFF" opacity="0.0559895833"></path>
                    <g id="Group-3" transform="translate(11.397590, 175.035714)">
                        <g id="Group-2">
                            <g id="Page-1">
                                <g id="Fill-1" opacity="0.355751812">
                                    <use fill="black" fill-opacity="1" filter="url(#filter-2)" xlink:href="#path-1"></use>
                                    <use fill="#000000" fill-rule="evenodd" xlink:href="#path-1"></use>
                                </g>
                                <path d="M65.6712625,45.2231493 C61.4801159,45.2231493 57.8153773,41.5565811 57.8153773,37.367175 L57.8153773,8.04133226 C57.8153773,3.85192616 61.4801159,0.185357945 65.6712625,0.185357945 C69.8624091,0.185357945 73.5305006,3.85192616 73.5305006,8.04133226 L73.5305006,37.367175 C73.5305006,42.0794189 69.8624091,45.2231493 65.6712625,45.2231493 L65.6712625,45.2231493 Z" id="Fill-2" fill="#FFFFFF"></path>
                                <g id="Fill-3">
                                    <use fill="black" fill-opacity="1" filter="url(#filter-4)" xlink:href="#path-3"></use>
                                    <use fill="#F92465" fill-rule="evenodd" xlink:href="#path-3"></use>
                                </g>
                                <path d="M142.68442,45.2231493 C138.493273,45.2231493 134.828534,41.5565811 134.828534,37.367175 L134.828534,8.04133226 C134.828534,3.85192616 138.493273,0.185357945 142.68442,0.185357945 C146.875566,0.185357945 150.543658,3.85192616 150.543658,8.04133226 L150.543658,37.367175 C150.543658,42.0794189 146.875566,45.2231493 142.68442,45.2231493 L142.68442,45.2231493 Z" id="Fill-4" fill="#50E3C2"></path>
                                <path d="M180.931147,45.2231493 C176.740001,45.2231493 173.071909,41.5565811 173.071909,37.367175 L173.071909,8.04133226 C173.071909,3.85192616 176.740001,0.185357945 180.931147,0.185357945 C185.122294,0.185357945 188.787032,3.85192616 188.787032,8.04133226 L188.787032,37.367175 C188.787032,42.0794189 185.645349,45.2231493 180.931147,45.2231493 L180.931147,45.2231493 Z" id="Fill-5" fill="#000000"></path>
                                <path d="M65.6712625,246.314642 C61.4801159,246.314642 57.8153773,242.648074 57.8153773,238.458668 L57.8153773,209.132825 C57.8153773,204.943419 61.4801159,201.276851 65.6712625,201.276851 C69.8624091,201.276851 73.5305006,204.943419 73.5305006,209.132825 L73.5305006,238.458668 C73.5305006,242.648074 69.8624091,246.314642 65.6712625,246.314642 L65.6712625,246.314642 Z" id="Fill-6" fill="#4A4A4A"></path>
                                <path d="M103.91799,246.314642 C99.7268434,246.314642 96.0587519,242.648074 96.0587519,238.458668 L96.0587519,209.132825 C96.0587519,204.943419 99.7268434,201.276851 103.91799,201.276851 C108.109137,201.276851 111.773875,204.943419 111.773875,209.132825 L111.773875,238.458668 C111.773875,242.648074 108.632192,246.314642 103.91799,246.314642 L103.91799,246.314642 Z" id="Fill-7" fill="#4A4A4A"></path>
                                <g id="Fill-8">
                                    <use fill="black" fill-opacity="1" filter="url(#filter-6)" xlink:href="#path-5"></use>
                                    <use fill="#FFFFFF" fill-rule="evenodd" xlink:href="#path-5"></use>
                                </g>
                                <path d="M180.931147,246.314642 C176.740001,246.314642 173.071909,242.648074 173.071909,238.458668 L173.071909,209.132825 C173.071909,204.943419 176.740001,201.276851 180.931147,201.276851 C185.122294,201.276851 188.787032,204.943419 188.787032,209.132825 L188.787032,238.458668 C188.787032,242.648074 185.645349,246.314642 180.931147,246.314642 L180.931147,246.314642 Z" id="Fill-9" fill="#4A4A4A"></path>
                                <g id="Fill-10" opacity="0.314254982">
                                    <use fill="black" fill-opacity="1" filter="url(#filter-8)" xlink:href="#path-7"></use>
                                    <use fill="#000000" fill-rule="evenodd" xlink:href="#path-7"></use>
                                </g>
                                <path d="M238.557737,111.727457 L209.21971,111.727457 C205.028564,111.727457 201.360472,108.064241 201.360472,103.874835 C201.360472,99.6854286 205.028564,96.0188604 209.21971,96.0188604 L238.557737,96.0188604 C242.748883,96.0188604 246.416975,99.6854286 246.416975,103.874835 C246.416975,108.064241 242.748883,111.727457 238.557737,111.727457 L238.557737,111.727457 Z" id="Fill-11" fill="#000000" opacity="0.314254982"></path>
                                <path d="M238.557737,150.48114 L209.21971,150.48114 C205.028564,150.48114 201.360472,146.814571 201.360472,142.625165 C201.360472,138.435759 205.028564,134.772543 209.21971,134.772543 L238.557737,134.772543 C242.748883,134.772543 246.416975,138.435759 246.416975,142.625165 C246.416975,146.814571 242.748883,150.48114 238.557737,150.48114 L238.557737,150.48114 Z" id="Fill-12" fill="#000000" opacity="0.314254982"></path>
                                <path d="M238.557737,188.708632 L209.21971,188.708632 C205.028564,188.708632 201.360472,185.045416 201.360472,180.85601 C201.360472,176.666604 205.028564,173.000035 209.21971,173.000035 L238.557737,173.000035 C242.748883,173.000035 246.416975,176.666604 246.416975,180.85601 C246.416975,185.045416 242.748883,188.708632 238.557737,188.708632 L238.557737,188.708632 Z" id="Fill-13" fill="#000000" opacity="0.314254982"></path>
                                <path d="M37.3826993,73.4999647 L8.04467307,73.4999647 C3.85352647,73.4999647 0.185434953,69.8333965 0.185434953,65.6439904 C0.185434953,61.4545843 3.85352647,57.7913676 8.04467307,57.7913676 L37.3826993,57.7913676 C41.5738459,57.7913676 45.2419375,61.4545843 45.2419375,65.6439904 C45.2419375,69.8333965 42.096901,73.4999647 37.3826993,73.4999647 L37.3826993,73.4999647 Z" id="Fill-14" fill="#4D5C65"></path>
                                <path d="M37.3826993,111.727457 L8.04467307,111.727457 C3.85352647,111.727457 0.185434953,108.064241 0.185434953,103.874835 C0.185434953,99.6854286 3.85352647,96.0188604 8.04467307,96.0188604 L37.3826993,96.0188604 C41.5738459,96.0188604 45.2419375,99.6854286 45.2419375,103.874835 C45.2419375,108.064241 42.096901,111.727457 37.3826993,111.727457 L37.3826993,111.727457 Z" id="Fill-15" fill="#4D5C65"></path>
                                <path d="M37.3826993,150.48114 L8.04467307,150.48114 C3.85352647,150.48114 0.185434953,146.814571 0.185434953,142.625165 C0.185434953,138.435759 3.85352647,134.772543 8.04467307,134.772543 L37.3826993,134.772543 C41.5738459,134.772543 45.2419375,138.435759 45.2419375,142.625165 C45.2419375,146.814571 42.096901,150.48114 37.3826993,150.48114 L37.3826993,150.48114 Z" id="Fill-16" fill="#50E3C2"></path>
                                <g id="Fill-17">
                                    <use fill="black" fill-opacity="1" filter="url(#filter-10)" xlink:href="#path-9"></use>
                                    <use fill="#4D5C65" fill-rule="evenodd" xlink:href="#path-9"></use>
                                </g>
                            </g>
                            <rect id="Rectangle" fill="#000000" opacity="0.373075181" x="78.746988" y="79.75" width="90.1445783" height="87" rx="4.55202"></rect>
                        </g>
                        <g id="dd-white-logo" opacity="0.770833333" transform="translate(91.180723, 90.107143)"></g>
                    </g>
                    <g id="Layer_1" transform="translate(102.578313, 265.142857)" fill="#FFFFFF">
                        <g id="Group">
                            <g id="Logo_1_">
                                <path d="M14.4400284,26.086755 C14.4400284,26.086755 19.8130622,22.0586531 21.5880823,22.4422819 L48.7890661,22.2504675 L35.0206669,45.6997749 C33.6294349,47.7138258 28.3043746,50.0635519 28.3043746,50.0635519 L30.0793947,33.0400261 L14.4400284,26.086755 L14.4400284,26.086755 Z" id="Shape"></path>
                                <path d="M32.8138852,0 L32.8138852,0 L32.8138852,0 C41.8808797,0 50.084351,3.69242672 56.0330671,9.59071875 C61.9817831,15.5369644 65.6277703,23.7370289 65.6277703,32.8002581 L65.6757438,32.8002581 L65.6757438,32.8002581 L65.6757438,32.8482117 L65.6277703,32.8482117 C65.6277703,41.8634874 61.9817831,50.0635519 56.0330671,55.9618439 C50.084351,61.9080895 41.9288533,65.6005163 32.8138852,65.6005163 L32.8138852,65.6005163 L32.8138852,65.6005163 L32.8138852,60.3735745 L32.8138852,60.3735745 L32.8138852,60.3735745 C40.3937007,60.3735745 47.3018871,57.2565909 52.2911328,52.3173708 C57.2803785,47.330197 60.398657,40.4248795 60.398657,32.8961653 L60.3506835,32.8961653 L60.3506835,32.8482117 L60.3506835,32.8482117 L60.398657,32.8482117 C60.398657,25.2715439 57.2803785,18.3662264 52.3391063,13.3790527 C47.3018871,8.34392531 40.3937007,5.22694172 32.8138852,5.22694172 L32.8138852,5.22694172 L32.8138852,5.22694172 L32.8138852,0 L32.8138852,0 Z M32.8138852,65.6005163 L32.8138852,65.6005163 L32.8138852,65.6005163 C23.7468906,65.6005163 15.5434193,61.9080895 9.59470326,55.9618439 C3.64598724,50.0635519 0,41.8634874 0,32.8482117 L0,32.8482117 L0,32.8002581 L0,32.8002581 L0,32.8002581 C0,23.7370289 3.64598724,15.5369644 9.59470326,9.59071875 C15.5434193,3.69242672 23.7468906,0 32.8138852,0 L32.8138852,0 L32.8138852,0 L32.8138852,5.22694172 L32.8138852,5.22694172 L32.8138852,5.22694172 C25.2340696,5.22694172 18.3258832,8.29597172 13.3366375,13.2831455 C8.34739184,18.3182728 5.22911328,25.2235903 5.22911328,32.8002581 L5.22911328,32.8002581 L5.22911328,32.8002581 L5.22911328,32.8482117 L5.22911328,32.8482117 C5.22911328,40.4248795 8.29941832,47.2822434 13.288664,52.2694172 C18.2779097,57.2565909 25.1860961,60.3256209 32.7659116,60.3256209 L32.7659116,60.3256209 L32.7659116,60.3256209 L32.7659116,65.6005163 L32.8138852,65.6005163 Z" id="Shape"></path>
                            </g>
                        </g>
                    </g>
                </g>
            </g>
        </g>
    </g>
</svg>