<?xml version="1.0" encoding="UTF-8" standalone="no"?>
<svg width="40px" height="44px" viewBox="0 0 40 44" version="1.1" xmlns="http://www.w3.org/2000/svg" xmlns:xlink="http://www.w3.org/1999/xlink">
    <!-- Generator: Sketch 3.7.2 (28276) - http://www.bohemiancoding.com/sketch -->
    <title>google-play-icn</title>
    <desc>Created with Sketch.</desc>
    <defs>
        <linearGradient x1="91.1653846%" y1="4.508%" x2="-37.93%" y2="71.6376%" id="linearGradient-1">
            <stop stop-color="#4998D3" offset="0%"></stop>
            <stop stop-color="#4A99D3" offset="0.657445%"></stop>
            <stop stop-color="#42BAEB" offset="26.01%"></stop>
            <stop stop-color="#41C7F2" offset="51.22%"></stop>
            <stop stop-color="#56C9E9" offset="76.04%"></stop>
            <stop stop-color="#5BCAE8" offset="100%"></stop>
        </linearGradient>
        <linearGradient x1="107.252217%" y1="49.0321429%" x2="-131.140887%" y2="49.0321429%" id="linearGradient-2">
            <stop stop-color="#FEE000" offset="0%"></stop>
            <stop stop-color="#FEBD11" offset="40.87%"></stop>
            <stop stop-color="#FAA51A" offset="77.54%"></stop>
            <stop stop-color="#F99B1C" offset="100%"></stop>
        </linearGradient>
        <linearGradient x1="86.1%" y1="17.9492737%" x2="-50.1772455%" y2="194.526242%" id="linearGradient-3">
            <stop stop-color="#EF4149" offset="0%"></stop>
            <stop stop-color="#C31E63" offset="100%"></stop>
        </linearGradient>
        <linearGradient x1="-18.8676647%" y1="-53.9718683%" x2="41.9856287%" y2="24.6329416%" id="linearGradient-4">
            <stop stop-color="#32A072" offset="0%"></stop>
            <stop stop-color="#2CA772" offset="6.85%"></stop>
            <stop stop-color="#4BBA71" offset="47.62%"></stop>
            <stop stop-color="#5EBD6B" offset="80.09%"></stop>
            <stop stop-color="#66BE69" offset="100%"></stop>
        </linearGradient>
    </defs>
    <g id="Page-1" stroke="none" stroke-width="1" fill="none" fill-rule="evenodd">
        <g id="Desktop-HD-Copy" transform="translate(-304.000000, -647.000000)">
            <g id="google-play-icn" transform="translate(304.000000, 646.000000)">
                <g id="Layer_1">
                    <g id="Group">
                        <g id="Shape">
                            <path d="M1.66666667,1.83333333 C1.16666667,2.33333333 0.833333333,3 0.833333333,4.16666667 L0.833333333,41 C0.833333333,42 1.16666667,42.8333333 1.66666667,43.3333333 L1.83333333,43.5 L22.5,22.8333333 L22.5,22.6666667 L22.5,22.5 L1.66666667,1.83333333 L1.66666667,1.83333333 L1.66666667,1.83333333 Z" fill="url(#linearGradient-1)"></path>
                            <path d="M29.3333333,29.6666667 L22.5,22.8333333 L22.5,22.6666667 L22.5,22.5 L29.3333333,15.6666667 L29.5,15.8333333 L37.6666667,20.5 C40,21.8333333 40,24 37.6666667,25.3333333 L29.3333333,29.6666667 L29.3333333,29.6666667 L29.3333333,29.6666667 Z" fill="url(#linearGradient-2)"></path>
                            <path d="M29.5,29.5 L22.5,22.5 L1.66666667,43.3333333 C2.5,44.1666667 3.66666667,44.1666667 5.16666667,43.5 L29.5,29.5" fill="url(#linearGradient-3)"></path>
                            <path d="M29.5,15.5 L5.16666667,1.66666667 C3.66666667,0.833333333 2.33333333,1 1.66666667,1.83333333 L22.5,22.6666667 L29.5,15.5 L29.5,15.5 Z" fill="url(#linearGradient-4)"></path>
                        </g>
                        <g transform="translate(0.000000, 28.333333)" id="Shape" fill="#010101">
                            <path d="M29.3333333,1 L5.16666667,14.6666667 C3.83333333,15.5 2.66666667,15.3333333 1.83333333,14.6666667 L1.83333333,14.6666667 L1.66666667,15 L1.66666667,15 L1.83333333,15.1666667 L1.83333333,15.1666667 C2.66666667,15.8333333 3.83333333,16 5.16666667,15.1666667 L29.3333333,1 L29.3333333,1 L29.3333333,1 Z" opacity="0.2"></path>
                            <path d="M1.66666667,14.6666667 C1.16666667,14.1666667 0.833333333,13.3333333 0.833333333,12.3333333 L0.833333333,12.5 C0.833333333,13.5 1.16666667,14.3333333 1.66666667,14.8333333 L1.66666667,14.6666667 L1.66666667,14.6666667 L1.66666667,14.6666667 Z" opacity="0.12"></path>
                        </g>
                        <path d="M37.6666667,24.6666667 L29.3333333,29.3333333 L29.5,29.5 L37.6666667,24.8333333 C38.8333333,24.1666667 39.3333333,23.3333333 39.3333333,22.5 L39.3333333,22.5 C39.3333333,23.3333333 38.6666667,24.1666667 37.6666667,24.6666667 L37.6666667,24.6666667 Z" id="Shape" fill="#010101" opacity="0.12"></path>
                        <path d="M5.16666667,1.83333333 L37.6666667,20.3333333 C38.6666667,21 39.3333333,21.6666667 39.3333333,22.5 L39.3333333,22.5 C39.3333333,21.6666667 38.8333333,20.8333333 37.6666667,20.1666667 L5.16666667,1.66666667 C2.83333333,0.333333333 0.833333333,1.5 0.833333333,4.16666667 L0.833333333,4.33333333 C0.833333333,1.66666667 2.83333333,0.5 5.16666667,1.83333333 L5.16666667,1.83333333 Z" id="Shape" fill="#FFFFFF" opacity="0.25"></path>
                    </g>
                </g>
            </g>
        </g>
    </g>
</svg>