<?xml version="1.0" encoding="utf-8"?>
<!-- Generator: Adobe Illustrator 19.1.0, SVG Export Plug-In . SVG Version: 6.00 Build 0)  -->
<svg version="1.1" id="Layer_1" xmlns="http://www.w3.org/2000/svg" xmlns:xlink="http://www.w3.org/1999/xlink" x="0px" y="0px"
	 viewBox="0 0 185.2 154.1" style="enable-background:new 0 0 185.2 154.1;" xml:space="preserve">
<style type="text/css">
	.st0{fill:#F1F7FB;}
	.st1{fill:#DAE2E8;}
	.st2{opacity:0.7;fill:#4FC2C0;}
	.st3{opacity:0.7;fill:#91A0AF;}
	.st4{opacity:0.5;fill:#37C4E7;}
	.st5{opacity:0.8;fill:#8092A6;}
	.st6{fill:#8092A6;}
	.st7{fill:#91A0AF;}
	.st8{fill:#5B6E85;}
	.st9{fill:#FFFFFF;}
	.st10{fill:#1F3249;}
	.st11{fill:#B7C3CF;}
</style>
<g>
	<g>
		<path class="st0" d="M6.2,154.1h145.1c0.8,0,1.7-0.4,2.2-1l31.1-38.2c1.5-1.8,0.2-4.6-2.2-4.6H42.6c-0.8,0-1.5,0.3-2,0.9
			L4.1,149.3C2.4,151.1,3.7,154.1,6.2,154.1z"/>
		<path class="st1" d="M2.8,145.6H148c0.8,0,1.7-0.4,2.2-1l31.1-38.2c1.5-1.8,0.2-4.6-2.2-4.6H39.3c-0.8,0-1.5,0.3-2,0.9L0.8,140.9
			C-0.9,142.7,0.3,145.6,2.8,145.6z"/>
		<polygon class="st2" points="48.4,127 103.1,127 115.9,112.1 63.3,112.1 		"/>
		<polygon class="st3" points="92.3,120.5 152.8,120.5 166.9,101.3 108.8,101.3 		"/>
	</g>
	<path class="st4" d="M90.7,56l17.5,62.5h41.6l9.7-12.3L95.8,54.9C95.8,54.9,92.3,52.5,90.7,56"/>
	<polygon class="st0" points="54.7,128.2 67.8,108.4 71.1,110.2 78,100 97,128.1 	"/>
	<polygon class="st5" points="12.1,144.3 33.2,110.4 38.6,113.3 49.8,96 80.3,144 	"/>
	<g>
		<g>
			<g>
				<path class="st6" d="M87.2,54.1l-0.6,0l-0.3,0.4L83,54.7l0-0.4l-0.6-0.5l-0.4-4.9l0.6-0.7l4.1-1.4c0,0-0.1-1.3,1.2-2.6l0-0.8
					c0,0-1.5,0-2.1-1l-0.3-4.6l0.4-0.3l0-0.5c0,0-0.5-0.1-0.6-0.3c-0.1-0.2,0-0.1,0-0.1L85.3,35l-0.2-0.3l0-0.5l-0.3-0.1
					c0,0-0.1-0.9-0.1-0.9c0,0,8.8-0.5,8.8-0.5l0.1,0.9l-0.2,0.2l0,0.5l-0.2,0.2l0.1,1.6c0,0-0.1,0.4-0.6,0.5l0,0.4l0.3,0.2l0.3,4.9
					c0,0-0.7,1-2.1,1.1l0.1,0.8c0,0,1.2,0.5,1.5,1.3"/>
				<path class="st7" d="M44.2,39.7c0,0-2.2,0.7-2.2,2l0.5,3.6l-0.9,0.5l1.1,7.3l1.7,0.4l0.1,0.8l4.1,13.4c0,0,3.7-0.1,3.7-0.2
					S50.3,56.1,50.3,56s0.4-2.2,0.4-2.2l-0.2-1c0,0,1.7,0.2,2.3-0.8l-0.6-5"/>
				<circle class="st8" cx="92.2" cy="51.2" r="5.9"/>
				<circle class="st9" cx="92.6" cy="53.2" r="3.1"/>
				<path class="st10" d="M45.3,40.7c0,0-2.1,4.4,0.9,5c3,0.6,9.5,2.3,14,4.5l2.4-1.2c0,0-11.3-8.3-14.4-9.6
					C48.3,39.4,48.2,41.5,45.3,40.7z"/>
				<path class="st10" d="M43.8,39c0,0,0.2-2.9,3.2-1.7L34.8,31l-2.3,0.4c0,0,7,5.6,7.7,5.9C40.8,37.6,43.8,39,43.8,39z"/>
				
					<ellipse transform="matrix(0.8863 0.4631 -0.4631 0.8863 23.2722 -16.9421)" class="st8" cx="46.1" cy="38.9" rx="1.8" ry="1.6"/>
				<path class="st1" d="M82.4,10.5l0.1,1.8c0,0-1.3,1,0.1,1.7l0.3,5.5c0,0-1,0.4-1.1,1.4c-0.1,1,0.1,2.2,0.1,2.2s0.2,0.9,1.3,1.4
					l0.4,1.2l-0.4,4.3l-1.1-2.2l-0.4-2.7l-1.7-2.7l-0.4,0.3l0.2,2.7l3.9,6.8l10.7-0.8c0,0,2.2-4.9,2.1-4.8c-0.1,0-0.1-1.1-0.1-1.1
					l0.9-2.4l-0.1-1.5l-0.7,0l0,0.8l-0.7,1.2l-1.1-0.4c0,0,0.3-1.7,0.1-2.4c-0.2-0.7-0.6-1.4-0.6-1.4s-0.4-0.4-0.7,0
					c-0.3,0.5-0.1,0-0.1,0l-0.4-6.2c0,0,0.7-0.4,0.6-1c0-0.5-0.7-0.9-0.7-0.9L93,9.8L82.4,10.5z"/>
				<path class="st11" d="M60.6,33.4l18.6-10.1c0,0-2.2-2.1-2-4.6L58.4,29.2C58.4,29.2,56.8,32.8,60.6,33.4z"/>
				<path class="st7" d="M51.3,30.5c0,0,1.9-0.8,4.1,0.3l2.6-1.4l0.4-0.1c0,0-1.6,3.3,2.2,4.2L56.3,36l-0.6,3c0,0-1.2,1.5-2.4,1.3
					l-0.8,1.5l-3.8-2.3l0.7-1.5c0,0-0.8-1.6,0.3-4L51.3,30.5z"/>
				<path class="st6" d="M82.3,10.5l-0.6,0l-0.1-0.7c0,0-1.7,1.8-1.7,2s-0.1,0.5-0.1,0.7c0,0.2,0.3,4.2,0.3,4.2l-0.6,0.4l-0.3-5
					c0,0-0.1-0.1,0.3-1c0.4-0.8,2-3.5,2-3.5S82.3,10.2,82.3,10.5z"/>
				<path class="st10" d="M56.9,19.2l0.2,0.8l13.7-5.4c0,0,0.2-0.7-0.4-0.5C69.8,14.2,56.9,19.2,56.9,19.2z"/>
				<path class="st11" d="M52.8,24.2l0,0.5c0,0,2.7,2.4,6.5-0.4l-0.2-3c0,0-0.6-1.1-2-0.9c0,0-0.6,1.5-3.6,0.6L52.8,24.2z"/>
				<path class="st1" d="M52.8,24.7l-0.6,0.4l0.5,4.6l-0.3,0.6l3.4,0.8l4.6-2.9l-0.2-3.7c0,0-0.3-0.2-0.8-0.2S52.8,24.7,52.8,24.7z"
					/>
				
					<ellipse transform="matrix(0.9981 -6.229585e-02 6.229585e-02 0.9981 -1.1361 3.5084)" class="st8" cx="55.7" cy="20" rx="1.6" ry="1.3"/>
				<path class="st10" d="M36.9,27.2c0,0,1.3,0.3,1.5,0.6c0,0,11.2-3.5,14.5-3.5c0,0,1.7,0.3,3.2-3c0,0-1.6,0.3-1.9-0.9
					c0,0-3.7,0.9-6.2,2C45.4,23.5,36.9,27.2,36.9,27.2z"/>
				<path class="st7" d="M134.5,33.4c0,0,2.2,0.4,2.5,1.7l0,3.7l1,0.4l-0.2,7.3l-1.6,0.7l0,0.8l-2.4,13.8c0,0-3.7,0.4-3.7,0.2
					c0-0.2,0.5-11.5,0.4-11.6c-0.1-0.1-0.7-2.1-0.7-2.1l0.1-1c0,0-1.7,0.4-2.4-0.5l0-5"/>
				<path class="st10" d="M133.5,34.4c0,0,2.6,4.1-0.3,5.1c-2.9,0.9-9.2,3.4-13.3,6.2l-2.5-0.9c0,0,10.2-9.7,13.1-11.3
					C130.5,33.5,130.8,35.6,133.5,34.4z"/>
				<path class="st10" d="M134.8,32.6c0,0-0.5-2.8-3.4-1.3l11.3-7.7l2.4,0.1c0,0-6.3,6.4-6.9,6.8S134.8,32.6,134.8,32.6z"/>
				
					<ellipse transform="matrix(-0.8218 0.5697 -0.5697 -0.8218 260.0823 -15.7416)" class="st8" cx="132.5" cy="32.8" rx="1.8" ry="1.6"/>
				<path class="st7" d="M93.3,13.8l0.4,6.6l3.9,1.3c0,0,2.3-2.8,1.4-5.3L93.3,13.8z"/>
				<path class="st11" d="M117.5,29.1l-19.7-7.7c0,0,2-2.4,1.4-4.8l19.9,8.1C119.1,24.7,121.1,28.1,117.5,29.1z"/>
				<path class="st7" d="M126.3,25c0,0-2-0.6-4,0.8l-2.7-1.1l-0.5-0.2c0,0,1.8,3.2-1.9,4.6l4.8,1.9l1,2.9c0,0,1.4,1.3,2.6,1l1,1.4
					l3.5-2.7l-0.9-1.4c0,0,0.6-1.7-0.8-3.9L126.3,25z"/>
				<path class="st10" d="M119.4,14.6l-0.1,0.8L105,11.7c0,0-0.3-0.7,0.3-0.6C105.9,11.2,119.4,14.6,119.4,14.6z"/>
				<path class="st11" d="M124.1,19l0,0.5c0,0-2.4,2.7-6.5,0.4l-0.2-3c0,0,0.4-1.1,1.8-1.1c0,0,0.8,1.5,3.6,0.2L124.1,19z"/>
				<path class="st1" d="M124.1,19.5l0.7,0.3l0.1,4.6l0.3,0.5l-3.2,1.3l-4.9-2.3l-0.2-3.7c0,0,0.3-0.2,0.8-0.3
					S124.1,19.5,124.1,19.5z"/>
				
					<ellipse transform="matrix(-0.9981 6.229585e-02 -6.229585e-02 -0.9981 242.0403 22.8059)" class="st8" cx="120.7" cy="15.2" rx="1.6" ry="1.3"/>
				<path class="st10" d="M140.2,20c0,0-1.2,0.5-1.4,0.7c0,0-11.6-2.1-14.8-1.7c0,0-1.7,0.5-3.5-2.6c0,0,1.7,0.1,1.8-1.1
					c0,0,3.7,0.4,6.4,1.2C131.3,17.4,140.2,20,140.2,20z"/>
				<path class="st6" d="M94.4,32l-0.8-1.3l0.1-0.9l-0.8-2.3c0,0-3.7-1.4-8.5,0.5l-0.5,2.3l0.2,0.9l-0.4,1.5L94.4,32z"/>
				<polygon class="st1" points="84.2,29.3 93.3,28.7 93.3,30.1 93,30.6 93.1,31.4 93.5,32 93.5,32.7 84.7,33.2 84.6,32.4 
					84.8,31.9 84.8,31.2 84.3,30.5 				"/>
				<path class="st6" d="M80,4.8c0,0,2.5-4.5,7.5-4.8c0,0,5.3,0.2,7.1,3.9L93,10.2c0,0,0.2-0.8,0,0c-0.2,0.8,0,0,0,0L91.5,11l-0.3,2
					L88,14.2l-3.4-0.9l-0.7-1.8l-1.4-0.7C82.4,10.9,81.1,6.1,80,4.8z"/>
			</g>
		</g>
		<path class="st6" d="M82.5,14.2l0.5,7.4l-4.2,2c0,0-3-2.8-2.3-5.7L82.5,14.2z"/>
	</g>
</g>
</svg>
