<?xml version="1.0" encoding="utf-8"?>
<!-- Generator: Adobe Illustrator 19.1.0, SVG Export Plug-In . SVG Version: 6.00 Build 0)  -->
<svg version="1.1" id="Layer_1" xmlns="http://www.w3.org/2000/svg" xmlns:xlink="http://www.w3.org/1999/xlink" x="0px" y="0px"
	 viewBox="0 0 185.2 148.3" style="enable-background:new 0 0 185.2 148.3;" xml:space="preserve">
<style type="text/css">
	.st0{fill:#F1F7FB;}
	.st1{fill:#DAE2E8;}
	.st2{opacity:0.7;fill:#4FC2C0;}
	.st3{opacity:0.7;fill:#91A0AF;}
	.st4{fill:#F1F7FB;stroke:#37C4E7;stroke-width:2;stroke-miterlimit:10;}
	.st5{opacity:0.8;fill:#8092A6;}
</style>
<g>
	<g>
		<path class="st0" d="M6.2,148.3h145.1c0.8,0,1.7-0.4,2.2-1l31.1-38.2c1.5-1.8,0.2-4.6-2.2-4.6H42.6c-0.8,0-1.5,0.3-2,0.9
			L4.1,143.6C2.4,145.3,3.7,148.3,6.2,148.3z"/>
		<path class="st1" d="M2.8,140.9H148c0.8,0,1.7-0.4,2.2-1l31.1-38.2c1.5-1.8,0.2-4.6-2.2-4.6H39.3c-0.8,0-1.5,0.3-2,0.9L0.8,136.1
			C-0.9,137.9,0.3,140.9,2.8,140.9z"/>
		<polygon class="st2" points="48.4,122.3 103.1,122.3 115.9,107.4 63.3,107.4 		"/>
		<polygon class="st3" points="92.3,115.8 152.8,115.8 166.9,96.5 108.8,96.5 		"/>
	</g>
	<polygon class="st0" points="59.3,124.4 72.4,104.5 75.7,106.3 82.6,96.1 101.5,124.2 	"/>
	<g>
		<g>
			<line class="st4" x1="83.2" y1="96.5" x2="83.2" y2="0"/>
			<line class="st4" x1="87.7" y1="96.5" x2="87.7" y2="26.2"/>
			<line class="st4" x1="91.7" y1="96.5" x2="91.7" y2="13.8"/>
			<line class="st4" x1="95.7" y1="96.5" x2="95.7" y2="69"/>
			<line class="st4" x1="99.2" y1="96.5" x2="99.2" y2="88.7"/>
			<line class="st4" x1="79.7" y1="96.5" x2="79.7" y2="44.6"/>
			<line class="st4" x1="75.7" y1="96.5" x2="75.7" y2="26.2"/>
			<line class="st4" x1="71.6" y1="96.5" x2="71.6" y2="49.6"/>
			<line class="st4" x1="67.6" y1="96.5" x2="67.6" y2="69"/>
			<line class="st4" x1="103.2" y1="96.5" x2="103.2" y2="76.3"/>
			<line class="st4" x1="107.2" y1="96.5" x2="107.2" y2="83.7"/>
			<line class="st4" x1="111.7" y1="96.5" x2="111.7" y2="92.4"/>
			<line class="st4" x1="115.2" y1="96.5" x2="115.2" y2="93.3"/>
			<line class="st4" x1="119.2" y1="96.5" x2="119.2" y2="93.3"/>
			<line class="st4" x1="123.3" y1="96.5" x2="123.3" y2="93.3"/>
			<line class="st4" x1="127.3" y1="96.5" x2="127.3" y2="91.5"/>
			<line class="st4" x1="131.3" y1="96.5" x2="131.3" y2="93.3"/>
			<line class="st4" x1="135.3" y1="96.5" x2="135.3" y2="82.3"/>
			<line class="st4" x1="139.3" y1="96.5" x2="139.3" y2="71.7"/>
			<line class="st4" x1="143.3" y1="96.5" x2="143.3" y2="64.4"/>
			<line class="st4" x1="146.8" y1="96.5" x2="146.8" y2="48.3"/>
			<line class="st4" x1="150.8" y1="96.5" x2="150.8" y2="57.9"/>
			<line class="st4" x1="155.3" y1="96.5" x2="155.3" y2="69.9"/>
			<line class="st4" x1="159.3" y1="96.5" x2="159.3" y2="85"/>
			<line class="st4" x1="162.8" y1="96.5" x2="162.8" y2="91.9"/>
			<line class="st4" x1="166.8" y1="96.5" x2="166.8" y2="93.3"/>
			<line class="st4" x1="170.8" y1="96.5" x2="170.8" y2="93.3"/>
			<line class="st4" x1="174.9" y1="96.5" x2="174.9" y2="93.3"/>
			<line class="st4" x1="178.9" y1="96.5" x2="178.9" y2="93.3"/>
			<line class="st4" x1="40.1" y1="96.5" x2="40.1" y2="93.3"/>
			<line class="st4" x1="44.1" y1="96.5" x2="44.1" y2="93.3"/>
			<line class="st4" x1="48.1" y1="96.5" x2="48.1" y2="93.3"/>
			<line class="st4" x1="51.6" y1="96.5" x2="51.6" y2="93.3"/>
			<line class="st4" x1="55.6" y1="96.5" x2="55.6" y2="93.3"/>
			<line class="st4" x1="59.6" y1="96.5" x2="59.6" y2="93.3"/>
			<line class="st4" x1="64.1" y1="96.5" x2="64.1" y2="90.6"/>
		</g>
	</g>
	<polygon class="st5" points="11.6,140.3 32.7,106.4 38,109.4 49.2,92 79.7,140.1 	"/>
</g>
</svg>
