<?xml version="1.0" encoding="utf-8"?>
<!-- Generator: Adobe Illustrator 19.1.0, SVG Export Plug-In . SVG Version: 6.00 Build 0)  -->
<svg version="1.1" id="Layer_1" xmlns="http://www.w3.org/2000/svg" xmlns:xlink="http://www.w3.org/1999/xlink" x="0px" y="0px"
	 viewBox="0 0 185.2 146.6" style="enable-background:new 0 0 185.2 146.6;" xml:space="preserve">
<style type="text/css">
	.st0{fill:#F1F7FB;}
	.st1{fill:#DAE2E8;}
	.st2{opacity:0.7;fill:#4FC2C0;}
	.st3{opacity:0.7;fill:#91A0AF;}
	.st4{opacity:0.6;fill:#37C4E7;}
	.st5{opacity:0.8;fill:#8092A6;}
	.st6{fill:#37C4E7;}
</style>
<g>
	<g>
		<path class="st0" d="M6.2,146.6h145.1c0.8,0,1.7-0.4,2.2-1l31.1-38.2c1.5-1.8,0.2-4.6-2.2-4.6H42.6c-0.8,0-1.5,0.3-2,0.9
			L4.1,141.8C2.4,143.6,3.7,146.6,6.2,146.6z"/>
		<path class="st1" d="M2.8,139.1H148c0.8,0,1.7-0.4,2.2-1l31.1-38.2c1.5-1.8,0.2-4.6-2.2-4.6H39.3c-0.8,0-1.5,0.3-2,0.9L0.8,134.4
			C-0.9,136.2,0.3,139.1,2.8,139.1z"/>
		<polygon class="st2" points="48.4,120.5 103.1,120.5 115.9,105.6 63.3,105.6 		"/>
		<polygon class="st3" points="92.3,115 152.8,115 166.9,95.8 108.8,95.8 		"/>
	</g>
	<path class="st4" d="M38.6,95.6c0,0,42.5-19.2,63.7-49.1c-3.4,5.3,43.5,50.3,79,49.1L38.6,95.6z"/>
	<polygon class="st0" points="57.8,121.2 70.9,101.3 74.2,103.1 81.2,92.9 100.1,121 	"/>
	<polygon class="st5" points="11.6,138.6 32.7,104.7 38,107.7 49.2,90.3 79.7,138.3 	"/>
	<g>
		<g>
			<g id="Shape_328_1_">
				<path class="st6" d="M130.5,21.4c0-0.5,0.1-1,0.1-1.6c0-11-8.9-19.9-19.9-19.9c-7.4,0-13.8,4-17.2,10c-2.6-2.1-5.9-3.4-9.4-3.4
					c-8.2,0-14.9,6.7-14.9,14.9c0,0,0,0.1,0,0.2c-5.6,2.3-9.6,8.1-9.6,14.8c0,8.8,6.8,15.9,15.1,15.9h51c8.3,0,15.1-7.1,15.1-15.9
					C140.7,29.5,136.5,23.6,130.5,21.4z"/>
			</g>
		</g>
	</g>
	<g>
		<g>
			<path class="st0" d="M94.6,27.5c0.2,2.4-0.5,4.7-1.9,6.4c-1.4,1.7-3.5,2.9-5.9,3.2c-2.4,0.2-4.7-0.5-6.5-1.9
				c-1.7-1.4-2.9-3.5-3.2-5.9c-0.2-2.4,0.5-4.7,1.9-6.4c1.4-1.7,3.5-2.9,5.9-3.2c2.4-0.2,4.7,0.5,6.5,1.9
				C93.2,23,94.4,25.1,94.6,27.5 M92.8,21.8c-0.6-0.6-1.3-1.2-2.1-1.6l0.4-0.9l-2.1-0.9l-0.4,0.9c-0.9-0.3-1.7-0.4-2.7-0.4l-0.1-1
				l-2.2,0.2l0.1,1c-0.9,0.2-1.8,0.5-2.6,1l-0.6-0.8l-1.8,1.3l0.6,0.8c-0.7,0.6-1.2,1.3-1.7,2L76.9,23L75.9,25l0.8,0.4
				c-0.3,0.9-0.4,1.8-0.5,2.7l-0.9,0.1l0.2,2.2l0.8-0.1c0.2,0.9,0.5,1.8,1,2.6l-0.6,0.5l1.3,1.8l0.6-0.5c0.6,0.7,1.3,1.3,2.1,1.7
				l-0.3,0.7l2.1,0.9l0.3-0.7c0.9,0.3,1.8,0.4,2.8,0.5l0.1,0.7l2.3-0.2l-0.1-0.7c1-0.2,1.8-0.6,2.7-1l0.4,0.6l1.8-1.3l-0.4-0.6
				c0.7-0.6,1.2-1.3,1.7-2.1l0.7,0.3l0.9-2.1L95,31.2c0.3-0.9,0.4-1.8,0.4-2.7l0.8-0.1L96,26.1l-0.9,0.1c-0.2-0.9-0.6-1.8-1-2.6
				l0.7-0.5l-1.3-1.8L92.8,21.8z M116.3,18.7c0,2.1-1.7,3.8-3.8,3.8c-2.1,0-3.8-1.7-3.8-3.8c0-2.1,1.7-3.8,3.8-3.8
				C114.5,14.9,116.3,16.6,116.3,18.7 M120.4,18.5l1-0.1l-0.3-1.8l-1,0.1c-0.2-0.8-0.5-1.5-0.9-2.1l0.8-0.6l-1.2-1.5l-0.8,0.6
				c-0.5-0.5-1.1-0.9-1.8-1.3l0.4-1l-1.7-0.7l-0.4,1c-0.7-0.2-1.5-0.3-2.2-0.3l-0.1-1l-1.8,0.3l0.1,1c-0.7,0.2-1.4,0.5-2.1,0.9
				l-0.6-0.8l-1.5,1.2l0.6,0.8c-0.5,0.5-1,1.1-1.3,1.7l-0.9-0.4l-0.7,1.7l0.9,0.4c-0.2,0.7-0.3,1.5-0.3,2.3l-1,0.1l0.3,1.8l0.9-0.1
				c0.2,0.8,0.5,1.5,0.9,2.1l-0.7,0.5l1.2,1.5l0.7-0.5c0.5,0.5,1.1,1,1.8,1.4l-0.3,0.8l1.7,0.7l0.3-0.8c0.7,0.2,1.5,0.3,2.3,0.3
				l0.1,0.8l1.8-0.3l-0.1-0.8c0.8-0.2,1.5-0.5,2.2-0.9l0.5,0.7l1.5-1.2l-0.6-0.7c0.5-0.5,1-1.1,1.3-1.8l0.9,0.3l0.7-1.7l-0.9-0.4
				C120.3,20,120.4,19.3,120.4,18.5 M107.6,36.7c-0.2,1.4-1.4,2.4-2.8,2.3c-1.4-0.2-2.4-1.4-2.3-2.8c0.2-1.4,1.4-2.4,2.8-2.3
				C106.7,34,107.7,35.3,107.6,36.7 M114.2,33.6l1.1-0.5l-0.9-2.1l-1.1,0.5c-0.5-0.8-1-1.5-1.7-2.1l0.7-1l-1.8-1.3l-0.8,1
				c-0.8-0.4-1.6-0.8-2.5-1l0.1-1.2l-2.2-0.3l-0.1,1.2c-0.9,0-1.8,0.1-2.7,0.4l-0.5-1.1l-2.1,0.9l0.5,1.1c-0.8,0.4-1.5,1-2.1,1.6
				l-0.9-0.7L95.8,31l0.9,0.7c-0.5,0.8-0.8,1.6-1,2.6l-1.2-0.1l-0.3,2.2l1.1,0.1c0,1,0.1,1.9,0.4,2.8l-1,0.4l0.9,2.1l0.9-0.4
				c0.5,0.8,1,1.5,1.7,2.1l-0.6,0.8l1.8,1.3l0.6-0.8c0.8,0.5,1.7,0.8,2.6,1l-0.1,1l2.2,0.3l0.1-1c1,0,1.9-0.2,2.8-0.4l0.4,1l2.1-0.9
				l-0.4-1c0.8-0.5,1.5-1,2.1-1.7l0.9,0.7l1.3-1.8l-0.9-0.7c0.5-0.8,0.8-1.7,1-2.6l1.2,0.1l0.3-2.2l-1.2-0.1
				C114.6,35.4,114.4,34.5,114.2,33.6"/>
		</g>
	</g>
</g>
</svg>
