<?xml version="1.0" encoding="UTF-8" standalone="no"?>
<svg width="66px" height="75px" viewBox="0 0 66 75" version="1.1" xmlns="http://www.w3.org/2000/svg" xmlns:xlink="http://www.w3.org/1999/xlink">
    <!-- Generator: Sketch 40.3 (33839) - http://www.bohemiancoding.com/sketch -->
    <title>Group 2</title>
    <desc>Created with Sketch.</desc>
    <defs></defs>
    <g id="Page-1" stroke="none" stroke-width="1" fill="none" fill-rule="evenodd">
        <g id="Desktop-HD-Copy-2" transform="translate(-175.000000, -214.000000)">
            <g id="Group-2" transform="translate(175.000000, 214.000000)">
                <path d="M63.9595,15.8983 L63.9595,12.1814 C63.9595,8.7527 61.1534,5.9686 57.7071,5.9686 L47.6091,5.9686 L47.6091,1.6797 C47.6091,1.0571 47.102,0.55 46.475,0.55 L44.4301,0.55 C39.8321,0.55 35.9392,4.1162 35.5696,8.6757 L34.9767,15.8983 L7.6483,15.8983 L7.6483,18.1544 L11.3399,18.1544 L11.3399,39.2007 L8.3534,46.2814 L5.676,46.2814 L5.676,52.6284 L2.8919,59.2284 L0,59.2284 L0,61.4845 L1.9426,61.4845 L1.749,61.9432 C1.6247,62.2314 1.7622,62.5625 2.0493,62.6824 C2.123,62.7132 2.1956,62.7253 2.2682,62.7253 C2.4926,62.7253 2.7027,62.5966 2.7929,62.3777 L3.1713,61.4845 L20.5997,61.4845 L20.977,62.3777 C21.098,62.6659 21.428,62.8034 21.7206,62.6824 C22.0088,62.5625 22.1463,62.2314 22.022,61.9432 L21.8284,61.4845 L22.7051,61.4845 L22.7051,59.2284 L20.878,59.2284 L18.1632,52.7912 L18.1632,46.2814 L15.4176,46.2814 L12.474,39.3074 L12.474,18.1544 L34.7787,18.1544 L29.777,72.0929 L25.9743,72.0929 L25.9743,74.8 L35.1142,74.8 L35.1142,72.0929 L32.0595,72.0929 L33.0088,61.8233 L50.0027,69.2571 L50.2689,72.0929 L47.1713,72.0929 L47.1713,74.8 L56.3101,74.8 L56.3101,72.0929 L52.547,72.0929 L47.5453,18.1544 L66,18.1544 L66,15.8983 L63.9595,15.8983 Z M18.1632,58.5497 L18.1632,55.7128 L19.6449,59.2284 L4.125,59.2284 L5.676,55.5456 L5.676,58.5497 L18.1632,58.5497 Z M14.1845,46.2814 L9.5865,46.2814 L11.8855,40.8243 L14.1845,46.2814 Z M37.8301,8.8561 C38.1095,5.4659 41.0091,2.8061 44.4301,2.8061 L45.3409,2.8061 L45.3409,6.6385 C42.6338,7.1544 40.5108,9.4402 40.3095,12.2595 L40.0466,15.8983 L37.2537,15.8983 L37.8301,8.8561 Z M45.3409,7.799 L45.3409,15.8983 L41.1851,15.8983 L41.4392,12.3409 C41.602,10.1101 43.2311,8.2973 45.3409,7.799 L45.3409,7.799 Z M37.0601,18.1544 L45.2672,18.1544 L46.4101,30.4997 L36.6003,23.1176 L37.0601,18.1544 Z M36.476,24.4409 L46.2902,31.823 L35.0966,39.2997 L36.476,24.4409 Z M34.848,42.0024 L47.927,48.6574 L33.275,58.9446 L34.848,42.0024 Z M49.8872,67.9723 L33.1199,60.6419 L33.1419,60.423 L48.2064,49.8432 L49.8872,67.9723 Z M47.9787,47.4155 L34.9591,40.7902 L34.9635,40.7473 L46.6378,32.9527 L47.9787,47.4155 Z M61.6902,15.8983 L47.6091,15.8983 L47.6091,8.2247 L49.5429,8.2247 L49.5429,13.6378 C49.5429,13.9524 49.797,14.2054 50.1105,14.2054 C50.424,14.2054 50.677,13.9524 50.677,13.6378 L50.677,8.2247 L52.4909,8.2247 L52.4909,13.6378 C52.4909,13.9524 52.7439,14.2054 53.0574,14.2054 C53.372,14.2054 53.625,13.9524 53.625,13.6378 L53.625,8.2247 L55.4378,8.2247 L55.4378,13.6378 C55.4378,13.9524 55.6919,14.2054 56.0054,14.2054 C56.3189,14.2054 56.573,13.9524 56.573,13.6378 L56.573,8.2247 L57.7071,8.2247 C57.9392,8.2247 58.1669,8.2456 58.3858,8.2841 L58.3858,13.6378 C58.3858,13.9524 58.6432,14.2054 58.9578,14.2054 C59.2669,14.2054 59.5243,13.9524 59.5243,13.6378 L59.5243,8.6625 C60.8047,9.3203 61.6902,10.648 61.6902,12.1814 L61.6902,15.8983 Z" id="Page-1" fill="#DEDEDE"></path>
                <rect id="Rectangle-6" fill="#2196F3" x="5.5" y="46.2" width="13.2" height="13.2"></rect>
            </g>
        </g>
    </g>
</svg>