<?xml version="1.0" encoding="UTF-8" standalone="no"?>
<svg width="87px" height="74px" viewBox="0 0 87 74" version="1.1" xmlns="http://www.w3.org/2000/svg" xmlns:xlink="http://www.w3.org/1999/xlink">
    <!-- Generator: Sketch 40.3 (33839) - http://www.bohemiancoding.com/sketch -->
    <title>Group 8</title>
    <desc>Created with Sketch.</desc>
    <defs></defs>
    <g id="Page-1" stroke="none" stroke-width="1" fill="none" fill-rule="evenodd">
        <g id="Desktop-HD-Copy-2" transform="translate(-353.000000, -215.000000)">
            <g id="Group-8" transform="translate(353.000000, 215.000000)">
                <path d="M32.788125,0 C26.5440625,0 21.4944375,4.901 21.304125,11.016375 L11.5184375,11.016375 C5.162,11.016375 0,16.1439375 0,22.4586875 L0,35.699 L0,35.811375 L0,62.0219375 C0,68.3385 5.162,73.46425 11.5184375,73.46425 L75.4815625,73.46425 C81.838,73.46425 87,68.3385 87,62.0219375 L87,35.854875 L87,35.699 L87,22.4586875 C87,22.07625 86.96375,21.6938125 86.9220625,21.311375 C86.8096875,20.122375 86.4979375,19.053 86.072,18.019875 C85.916125,17.671875 85.76025,17.3329375 85.611625,17.0284375 C84.727125,15.3790625 83.4529375,14.0051875 81.9159375,13.0065 C80.1034375,11.7468125 77.8668125,11.016375 75.4815625,11.016375 L65.732125,11.016375 C65.54,4.89375 60.4505,0 54.248125,0 L32.788125,0 Z M32.788125,2.146 L54.248125,2.146 C59.2959375,2.146 63.303375,6.0465 63.4936875,11.023625 L23.4990625,11.023625 C23.732875,6.0465 27.7403125,2.146 32.788125,2.146 L32.788125,2.146 Z M11.5184375,13.198625 L75.4815625,13.198625 C80.68525,13.198625 84.8050625,17.3329375 84.8050625,22.4586875 L84.8050625,35.0465 C76.251875,41.3630625 64.195125,45.758375 50.4745,46.9056875 C49.7803125,43.7265625 46.9274375,41.3195625 43.53625,41.3195625 C40.1088125,41.3195625 37.2196875,43.7265625 36.5255,46.9419375 C22.812125,45.794625 10.711875,41.39025 2.1586875,35.08275 L2.1586875,22.4586875 C2.1586875,22.1541875 2.1586875,21.8496875 2.1949375,21.5379375 C2.3508125,20.271 2.73325,19.053 3.31325,18.019875 C3.4274375,17.7498125 3.625,17.52325 3.773625,17.2894375 C5.43025,14.8045 8.275875,13.198625 11.5184375,13.198625 L11.5184375,13.198625 Z M2.15325,37.8015 C11.016375,43.8824375 22.997,47.940625 36.405875,49.0081875 C36.7520625,52.606 39.8333125,55.437125 43.53625,55.437125 C47.237375,55.437125 50.2406875,52.606 50.5524375,49.0081875 C63.9975625,47.940625 75.983625,43.8824375 84.8050625,37.8015 L84.8050625,62.0219375 C84.8050625,67.1911875 80.68525,71.31825 75.4815625,71.31825 L11.5184375,71.31825 C6.31475,71.31825 2.1586875,67.1839375 2.1586875,62.0219375 L2.1586875,37.8015 L2.15325,37.8015 Z" id="Page-1" fill="#D9D9D9"></path>
                <ellipse id="Oval-2" fill="#2196F3" cx="43.5" cy="48.9375" rx="7.25" ry="7.25"></ellipse>
            </g>
        </g>
    </g>
</svg>