<?xml version="1.0" encoding="utf-8"?>
<!-- Generator: Adobe Illustrator 19.1.0, SVG Export Plug-In . SVG Version: 6.00 Build 0)  -->
<svg version="1.1" id="Layer_1" xmlns="http://www.w3.org/2000/svg" xmlns:xlink="http://www.w3.org/1999/xlink" x="0px" y="0px"
	 viewBox="0 0 22.3 22.3" style="enable-background:new 0 0 22.3 22.3;" xml:space="preserve">
<style type="text/css">
	.st0{fill:#DAE2E8;}
</style>
<g>
	<g>
		<path class="st0" d="M21.5,0.8c-1.1-1.1-2.9-1.1-4.1,0l-6.3,6.3L4.9,0.8C3.8-0.3,2-0.3,0.8,0.8s-1.1,2.9,0,4.1l6.3,6.3l-6.3,6.3
			c-1.1,1.1-1.1,2.9,0,4.1c0.6,0.6,1.3,0.8,2,0.8s1.5-0.3,2-0.8l6.3-6.3l6.3,6.3c0.6,0.6,1.3,0.8,2,0.8c0.7,0,1.5-0.3,2-0.8
			c1.1-1.1,1.1-2.9,0-4.1l-6.3-6.3l6.3-6.3C22.6,3.8,22.6,2,21.5,0.8z"/>
	</g>
</g>
</svg>
